<?xml version="1.0" standalone="no"?>
<!DOCTYPE svg PUBLIC "-//W3C//DTD SVG 20010904//EN"
 "http://www.w3.org/TR/2001/REC-SVG-20010904/DTD/svg10.dtd">
<svg version="1.0" xmlns="http://www.w3.org/2000/svg"
 width="700.000000pt" height="700.000000pt" viewBox="0 0 700.000000 700.000000"
 preserveAspectRatio="xMidYMid meet">
<metadata>
Created by potrace 1.14, written by Peter Selinger 2001-2017
</metadata>
<g transform="translate(0.000000,700.000000) scale(0.100000,-0.100000)"
fill="#000000" stroke="none">
<path d="M372 5833 c-4 -1 -20 -4 -35 -7 -45 -10 -64 -54 -66 -151 -1 -46 3
-102 9 -125 16 -61 41 -72 163 -72 l103 0 0 -674 0 -674 -98 -1 c-113 -2 -106
-1 -135 -17 -29 -16 -43 -69 -43 -169 0 -95 19 -147 59 -161 33 -11 1709 -9
1734 2 42 20 47 60 47 408 0 370 -1 377 -67 399 -22 7 -79 13 -133 12 -99 -1
-118 -3 -160 -20 -52 -22 -55 -32 -60 -241 l-5 -196 -353 0 -352 -1 2 250 3
250 229 2 c258 2 268 5 286 74 14 52 14 176 0 228 -18 69 -25 71 -287 71
l-233 0 0 220 0 220 347 -2 347 -3 1 -151 c0 -135 2 -154 19 -173 26 -29 83
-42 177 -42 93 0 150 15 180 47 22 23 22 30 23 303 1 154 -3 298 -7 320 -16
80 43 75 -873 75 -448 1 -817 0 -822 -1z"/>
<path d="M2614 5832 c-36 -6 -63 -25 -75 -54 -16 -39 -18 -178 -2 -230 18 -63
38 -71 170 -70 l112 1 1 -675 0 -674 -114 0 c-105 0 -117 -2 -141 -22 -57 -50
-55 -276 3 -316 26 -18 49 -19 462 -17 239 0 442 4 450 8 32 15 44 52 47 147
4 111 -13 170 -53 189 -14 6 -69 11 -123 11 l-98 0 -1 220 0 220 27 1 c14 1
40 2 56 3 55 3 145 -14 185 -34 89 -45 144 -123 258 -359 172 -360 240 -410
550 -407 117 2 134 4 152 21 24 25 37 83 35 165 -3 137 -21 161 -126 171 -98
9 -123 35 -232 241 -102 194 -154 261 -231 302 l-45 24 77 27 c164 58 260 142
313 276 31 81 42 204 27 324 -7 59 -45 173 -64 196 -8 8 -14 21 -14 27 0 7
-33 45 -72 85 -103 104 -217 156 -408 188 -52 8 -233 12 -591 13 -283 1 -524
0 -535 -2z m1036 -384 c8 -3 29 -9 45 -13 51 -14 114 -64 136 -108 25 -48 33
-143 17 -204 -20 -81 -88 -138 -193 -162 -41 -9 -268 -17 -376 -12 l-26 1 0
256 0 256 191 -5 c105 -2 198 -7 206 -9z"/>
<path d="M5029 5828 c-39 -8 -68 -42 -70 -83 -9 -161 8 -246 53 -261 11 -3 91
-6 179 -6 87 -1 159 -2 159 -4 0 -2 -6 -23 -14 -46 -8 -24 -65 -198 -126 -388
-61 -190 -149 -460 -195 -600 -46 -140 -87 -267 -90 -282 -7 -26 -7 -26 -112
-30 -95 -3 -107 -5 -123 -26 -23 -28 -34 -114 -27 -205 5 -58 11 -75 32 -96
l25 -26 400 0 c386 0 400 1 419 20 27 27 40 91 36 183 -2 81 -17 126 -44 138
-9 5 -55 10 -102 14 l-87 5 38 120 37 120 319 0 318 0 22 -75 c12 -41 29 -96
37 -122 l15 -48 -86 -1 c-111 -1 -121 -3 -141 -31 -22 -31 -28 -61 -30 -143
-1 -84 12 -135 40 -161 20 -18 43 -19 428 -20 452 -1 450 -2 471 62 16 47 16
181 0 228 -18 56 -41 66 -150 66 l-96 0 -148 468 c-81 257 -163 514 -181 572
-18 58 -67 213 -109 344 -81 258 -95 284 -165 308 -39 13 -872 19 -932 6z
m810 -693 c51 -181 97 -343 102 -359 6 -18 6 -32 0 -35 -10 -7 -410 -6 -416 1
-2 2 21 89 51 193 31 105 78 270 106 368 28 98 55 174 58 170 4 -5 49 -156 99
-338z"/>
<path d="M329 3260 c-67 -14 -88 -62 -83 -201 2 -82 21 -134 53 -144 10 -3 48
-6 83 -6 l64 -1 -2 -111 c-2 -145 -14 -730 -19 -1011 -3 -121 -7 -222 -10
-224 -3 -3 -28 -5 -56 -3 -28 1 -65 -3 -83 -9 -50 -16 -61 -47 -61 -170 0
-119 11 -153 54 -168 32 -11 741 -10 759 1 57 37 65 268 12 322 -17 17 -36 20
-122 22 -56 2 -104 5 -107 8 -2 3 -3 157 -2 343 2 185 4 410 5 499 0 89 4 156
9 148 4 -8 65 -168 136 -354 70 -187 135 -351 145 -366 30 -46 74 -65 151 -65
96 0 132 19 167 90 27 54 258 672 258 690 0 5 4 11 8 14 5 3 10 -129 11 -292
2 -163 4 -390 5 -504 l2 -208 -55 -1 c-31 -1 -72 0 -93 1 -87 4 -120 -47 -119
-183 1 -109 18 -153 65 -165 39 -11 737 -10 754 1 31 21 45 72 45 167 0 149
-26 181 -144 179 -33 -1 -61 0 -63 2 -3 2 -7 155 -10 339 -3 184 -9 487 -12
673 l-6 337 70 0 c83 0 108 16 122 75 13 56 12 160 -2 207 -21 71 -24 71 -344
72 -266 0 -285 -1 -310 -19 -25 -19 -49 -78 -201 -495 -11 -30 -48 -131 -83
-224 l-63 -168 -79 213 c-239 643 -250 670 -277 681 -26 10 -526 17 -572 8z"/>
<path d="M2624 3262 c-68 -11 -89 -52 -88 -178 1 -145 21 -172 129 -177 l60
-2 1 -545 c1 -468 3 -557 18 -632 61 -316 291 -516 634 -554 513 -56 858 178
916 621 3 22 5 282 6 577 l0 536 61 1 c76 0 105 17 119 72 13 48 11 181 -3
222 -21 61 -23 61 -424 61 l-364 -1 -26 -25 c-61 -61 -49 -298 16 -323 9 -4
55 -6 102 -6 l87 1 -1 -505 c0 -278 -4 -529 -9 -558 -11 -62 -51 -153 -81
-186 -98 -105 -311 -132 -453 -58 -38 20 -97 83 -119 127 -42 83 -44 113 -45
657 l0 523 85 0 c99 0 121 9 141 55 16 40 19 173 3 228 -19 70 -19 70 -403 71
-188 1 -351 0 -362 -2z"/>
<path d="M4856 3245 c-35 -24 -45 -56 -47 -150 -2 -156 19 -185 134 -186 85
-1 74 7 159 -114 19 -27 110 -154 201 -282 92 -127 167 -237 167 -243 0 -7
-22 -42 -48 -79 -35 -46 -434 -609 -446 -628 -1 0 -38 -3 -82 -6 -45 -2 -87
-8 -93 -11 -30 -19 -43 -71 -44 -166 0 -96 14 -147 45 -167 17 -10 734 -12
774 -1 44 11 57 47 60 158 3 101 -13 162 -44 175 -9 4 -41 10 -70 14 l-53 6
102 145 c56 80 120 171 142 203 22 32 43 59 46 61 7 4 302 -407 297 -412 -2
-2 -31 -3 -65 -3 -70 -1 -101 -20 -118 -74 -12 -38 -9 -191 5 -225 22 -56 13
-55 436 -56 442 -1 438 -2 457 70 12 43 13 147 4 199 -4 18 -14 43 -24 56 -18
23 -45 29 -151 31 -31 0 -40 7 -76 58 -23 31 -134 184 -248 340 -113 156 -207
287 -209 290 -2 6 150 224 371 536 24 34 53 76 64 94 20 32 21 32 89 31 81 -2
110 13 125 62 16 51 17 172 3 219 -22 74 -18 73 -400 74 -186 1 -352 -2 -369
-7 -49 -13 -64 -48 -67 -153 -3 -150 14 -185 96 -194 l49 -5 -114 -165 c-63
-91 -119 -172 -124 -180 -11 -18 0 -31 -153 189 l-108 156 65 5 c70 5 87 16
103 65 15 45 16 168 2 215 -23 75 -13 73 -437 74 -361 1 -378 0 -406 -19z"/>
</g>
</svg>
